<svg xmlns="http://www.w3.org/2000/svg" width="288.414" height="227.152" viewBox="0 0 288.414 227.152">
  <g id="Group_1662" data-name="Group 1662" transform="translate(-632.793 -500.848)">
    <g id="Group_1621" data-name="Group 1621" transform="translate(632.793 641.671)">
      <g id="Group_1620" data-name="Group 1620">
        <path id="Path_1802" data-name="Path 1802" d="M51.063,702.345a9.561,9.561,0,0,1-2.3,3.167,10.509,10.509,0,0,1-3.4,2.043,11.8,11.8,0,0,1-4.154.727H30.083q-1.925,0-3,.047V678.29a3.648,3.648,0,0,1,1.1-2.722,3.77,3.77,0,0,1,2.746-1.08h7.51a12.644,12.644,0,0,1,3.99.635,10.4,10.4,0,0,1,3.4,1.854,9.232,9.232,0,0,1,2.37,2.98,8.654,8.654,0,0,1,.892,3.966,7.826,7.826,0,0,1-.821,3.589,6.783,6.783,0,0,1-2.417,2.653,8.321,8.321,0,0,1,1.056.374,7.765,7.765,0,0,1,1.056.516,7.537,7.537,0,0,1,2.91,2.98,8.575,8.575,0,0,1,1.033,4.155A9.907,9.907,0,0,1,51.063,702.345ZM34.542,701.8h5.772a4.078,4.078,0,0,0,1.55-.305,4.3,4.3,0,0,0,1.314-.821,3.818,3.818,0,0,0,.891-1.219,3.805,3.805,0,0,0,0-3.1,4.124,4.124,0,0,0-.891-1.244,4.213,4.213,0,0,0-1.291-.844,3.9,3.9,0,0,0-1.525-.305h-5.82Zm.047-13.987H37.92a4.563,4.563,0,0,0,1.456-.234,3.907,3.907,0,0,0,2.183-1.807,2.9,2.9,0,0,0,.352-1.432,2.833,2.833,0,0,0-.329-1.362,3.751,3.751,0,0,0-.845-1.055,3.988,3.988,0,0,0-1.2-.705,3.9,3.9,0,0,0-1.383-.258H34.589Z" transform="translate(-27.079 -674.019)" fill="#90d1f4"/>
        <path id="Path_1803" data-name="Path 1803" d="M72.5,675.517a16.033,16.033,0,0,1,5.163,3.8,17.452,17.452,0,0,1,3.356,5.54,18.892,18.892,0,0,1,0,13.235,17.19,17.19,0,0,1-3.379,5.54,16.305,16.305,0,0,1-5.185,3.8,16.149,16.149,0,0,1-13.19,0,16.038,16.038,0,0,1-5.163-3.8,17.793,17.793,0,0,1-3.379-5.54,18.7,18.7,0,0,1,0-13.283,17.3,17.3,0,0,1,3.4-5.514,16.469,16.469,0,0,1,5.186-3.778,16.132,16.132,0,0,1,13.189,0ZM74.139,687.7a11.2,11.2,0,0,0-1.6-3.566,8.285,8.285,0,0,0-2.768-2.535,7.928,7.928,0,0,0-3.99-.962,7.471,7.471,0,0,0-3.85.962,8.528,8.528,0,0,0-2.722,2.51,11.035,11.035,0,0,0-1.6,3.474,14.951,14.951,0,0,0,0,7.79,11.011,11.011,0,0,0,1.6,3.474,8.546,8.546,0,0,0,2.722,2.511,7.47,7.47,0,0,0,3.85.961,7.924,7.924,0,0,0,3.871-.914,8.564,8.564,0,0,0,2.77-2.394,10.687,10.687,0,0,0,1.665-3.381,13.713,13.713,0,0,0,.563-3.919A15.957,15.957,0,0,0,74.139,687.7Z" transform="translate(-21.807 -674.108)" fill="#90d1f4"/>
        <path id="Path_1804" data-name="Path 1804" d="M106.11,707.7a3.633,3.633,0,0,1-2.675,1.08,3.678,3.678,0,0,1-1.619-.374,3.625,3.625,0,0,1-1.291-1.033l-15.254-20.7v21.684H77.808V677.949a3.733,3.733,0,0,1,1.08-2.675,3.551,3.551,0,0,1,2.675-1.128,3.349,3.349,0,0,1,1.759.494,4.811,4.811,0,0,1,1.386,1.244l15.019,20.182V678a3.593,3.593,0,0,1,.305-1.455,4.11,4.11,0,0,1,.8-1.22A3.673,3.673,0,0,1,102,674.5a3.479,3.479,0,0,1,1.433-.305,3.752,3.752,0,0,1,2.652,1.126,4.227,4.227,0,0,1,.8,1.2,3.484,3.484,0,0,1,.305,1.433v27.128A3.579,3.579,0,0,1,106.11,707.7Z" transform="translate(-15.15 -674.099)" fill="#90d1f4"/>
        <path id="Path_1805" data-name="Path 1805" d="M131.835,707.7a3.633,3.633,0,0,1-2.675,1.08,3.678,3.678,0,0,1-1.619-.374,3.635,3.635,0,0,1-1.291-1.033L111,686.679v21.684h-7.463V677.949a3.733,3.733,0,0,1,1.08-2.675,3.552,3.552,0,0,1,2.675-1.128,3.35,3.35,0,0,1,1.76.494,4.79,4.79,0,0,1,1.385,1.244l15.019,20.182V678a3.614,3.614,0,0,1,.305-1.455,4.11,4.11,0,0,1,.8-1.22,3.679,3.679,0,0,1,1.173-.821,3.469,3.469,0,0,1,1.432-.305,3.746,3.746,0,0,1,2.652,1.126,4.227,4.227,0,0,1,.8,1.2,3.464,3.464,0,0,1,.305,1.433v27.128A3.574,3.574,0,0,1,131.835,707.7Z" transform="translate(-9.101 -674.099)" fill="#90d1f4"/>
        <path id="Path_1806" data-name="Path 1806" d="M153.15,709.143l-2.3-6.9H137.38c-.093.283-.258.713-.493,1.292s-.493,1.172-.774,1.782a17.948,17.948,0,0,1-.868,1.667,2.158,2.158,0,0,1-.774.892,3.185,3.185,0,0,1-.914.7,2.569,2.569,0,0,1-1.2.282,3.731,3.731,0,0,1-2.6-1.01,3.318,3.318,0,0,1-1.1-2.557,4.362,4.362,0,0,1,.119-1.009,6.928,6.928,0,0,1,.305-.963l9.433-24.875a7.574,7.574,0,0,1,2.066-3.029,5,5,0,0,1,3.426-1.2,5.405,5.405,0,0,1,3.566,1.126,7.263,7.263,0,0,1,2.112,3.1l10.8,28.771Zm-9.059-27.083-4.6,13.752h9.151Z" transform="translate(-3.195 -674.081)" fill="#90d1f4"/>
        <path id="Path_1807" data-name="Path 1807" d="M183.725,697.942a16.183,16.183,0,0,1-3.262,5.42,14.982,14.982,0,0,1-5.116,3.614,16.565,16.565,0,0,1-6.712,1.315h-8.777a3.839,3.839,0,0,1-2.722-1.057,3.478,3.478,0,0,1-1.126-2.651V674.45c.563.033,1.392.047,2.488.047h9.387a19.656,19.656,0,0,1,5.937.868,16.069,16.069,0,0,1,4.928,2.534,14.821,14.821,0,0,1,3.661,4.085,17.4,17.4,0,0,1,2.136,5.515,15.54,15.54,0,0,1,.258,1.854q.07.915.07,1.854A19.322,19.322,0,0,1,183.725,697.942Zm-20.253-16.92v20.791h4.459a9.123,9.123,0,0,0,4.036-.844,8.762,8.762,0,0,0,2.933-2.278,9.818,9.818,0,0,0,1.807-3.331,13.221,13.221,0,0,0,.61-4.06,12.016,12.016,0,0,0-.657-3.991,9.83,9.83,0,0,0-1.9-3.285,8.807,8.807,0,0,0-3-2.2,9.494,9.494,0,0,0-3.966-.8Z" transform="translate(3.239 -674.028)" fill="#90d1f4"/>
        <path id="Path_1808" data-name="Path 1808" d="M204.392,675.517a16.033,16.033,0,0,1,5.163,3.8,17.452,17.452,0,0,1,3.356,5.54,18.891,18.891,0,0,1,0,13.235,17.19,17.19,0,0,1-3.379,5.54,16.305,16.305,0,0,1-5.185,3.8,16.149,16.149,0,0,1-13.19,0,16.038,16.038,0,0,1-5.163-3.8,17.794,17.794,0,0,1-3.379-5.54,18.7,18.7,0,0,1,0-13.283,17.3,17.3,0,0,1,3.4-5.514,16.47,16.47,0,0,1,5.186-3.778,16.132,16.132,0,0,1,13.189,0Zm1.643,12.179a11.2,11.2,0,0,0-1.6-3.566,8.285,8.285,0,0,0-2.768-2.535,7.928,7.928,0,0,0-3.99-.962,7.471,7.471,0,0,0-3.85.962,8.528,8.528,0,0,0-2.722,2.51,11.034,11.034,0,0,0-1.6,3.474,14.951,14.951,0,0,0,0,7.79,11.01,11.01,0,0,0,1.6,3.474,8.546,8.546,0,0,0,2.722,2.511,7.47,7.47,0,0,0,3.85.961,7.924,7.924,0,0,0,3.871-.914,8.564,8.564,0,0,0,2.77-2.394,10.687,10.687,0,0,0,1.665-3.381,13.713,13.713,0,0,0,.563-3.919A15.956,15.956,0,0,0,206.035,687.7Z" transform="translate(9.208 -674.108)" fill="#90d1f4"/>
        <path id="Path_1809" data-name="Path 1809" d="M238.006,707.7a3.635,3.635,0,0,1-2.675,1.08,3.678,3.678,0,0,1-1.619-.374,3.625,3.625,0,0,1-1.291-1.033l-15.254-20.7v21.684H209.7V677.949a3.733,3.733,0,0,1,1.08-2.675,3.55,3.55,0,0,1,2.675-1.128,3.349,3.349,0,0,1,1.759.494,4.811,4.811,0,0,1,1.386,1.244l15.019,20.182V678a3.593,3.593,0,0,1,.305-1.455,4.11,4.11,0,0,1,.8-1.22,3.673,3.673,0,0,1,1.172-.821,3.479,3.479,0,0,1,1.433-.305,3.752,3.752,0,0,1,2.652,1.126,4.227,4.227,0,0,1,.8,1.2,3.484,3.484,0,0,1,.305,1.433v27.128A3.579,3.579,0,0,1,238.006,707.7Z" transform="translate(15.865 -674.099)" fill="#90d1f4"/>
        <path id="Path_1810" data-name="Path 1810" d="M259.321,709.143l-2.3-6.9H243.551q-.141.424-.493,1.292t-.774,1.782a17.948,17.948,0,0,1-.868,1.667,2.176,2.176,0,0,1-.774.892,3.191,3.191,0,0,1-.915.7,2.56,2.56,0,0,1-1.2.282,3.731,3.731,0,0,1-2.6-1.01,3.318,3.318,0,0,1-1.1-2.557,4.362,4.362,0,0,1,.119-1.009,6.764,6.764,0,0,1,.305-.963l9.433-24.875a7.574,7.574,0,0,1,2.066-3.029,5,5,0,0,1,3.426-1.2,5.405,5.405,0,0,1,3.566,1.126,7.263,7.263,0,0,1,2.112,3.1l10.8,28.771Zm-9.059-27.083-4.6,13.752h9.151Z" transform="translate(21.771 -674.081)" fill="#90d1f4"/>
      </g>
    </g>
    <g id="Group_1623" data-name="Group 1623" transform="translate(740.648 692.611)">
      <g id="Group_1622" data-name="Group 1622">
        <path id="Path_1811" data-name="Path 1811" d="M136.86,749.869a1.391,1.391,0,0,1-.446-1.009v-14.5H117.4V749.94l-3-.047V718.3a1.523,1.523,0,0,1,1.549-1.549,1.372,1.372,0,0,1,1.033.446,1.542,1.542,0,0,1,.422,1.1v13.517h19.009V717.085h3.051v31.729a1.388,1.388,0,0,1-.469,1.079,1.624,1.624,0,0,1-1.126.422A1.391,1.391,0,0,1,136.86,749.869Z" transform="translate(-114.401 -715.019)" fill="#90d1f4"/>
        <path id="Path_1812" data-name="Path 1812" d="M140.454,746.33q-2.418-2.323-2.417-6.876V724.763l2.957-.047V739.36a7.476,7.476,0,0,0,1.549,4.952q1.549,1.854,4.881,1.854a6.122,6.122,0,0,0,4.9-1.831,7.378,7.378,0,0,0,1.572-4.975V725.326a1.463,1.463,0,0,1,.422-1.08,1.4,1.4,0,0,1,1.033-.422,1.347,1.347,0,0,1,1.056.446,1.6,1.6,0,0,1,.4,1.1v14.081q0,4.554-2.417,6.876t-6.97,2.323Q142.872,748.653,140.454,746.33Z" transform="translate(-108.843 -713.357)" fill="#90d1f4"/>
        <path id="Path_1813" data-name="Path 1813" d="M163.08,749.683a11.158,11.158,0,0,1-3.638-3.919v2.957c0,.22-.007.415-.023.587a4.934,4.934,0,0,1-.07.493,1.281,1.281,0,0,1-.374.681,1.3,1.3,0,0,1-.893.258,1.443,1.443,0,0,1-1.056-.446,1.494,1.494,0,0,1-.445-1.1V715.35h3v15.066a12.2,12.2,0,0,1,3.777-3.567,8.136,8.136,0,0,1,3.92-1.033,8.652,8.652,0,0,1,4.317,1.056,9.8,9.8,0,0,1,3.146,2.793,12.913,12.913,0,0,1,1.923,3.919,15.452,15.452,0,0,1,.657,4.482,17.71,17.71,0,0,1-.634,4.741,12.352,12.352,0,0,1-1.923,4.06,9.721,9.721,0,0,1-3.239,2.816A9.363,9.363,0,0,1,167,750.74,7.8,7.8,0,0,1,163.08,749.683Zm.07-20.394a6.891,6.891,0,0,0-2.228,2.417,10.573,10.573,0,0,0-1.15,3.239,18.476,18.476,0,0,0-.33,3.4,17.671,17.671,0,0,0,.353,3.52,9.559,9.559,0,0,0,1.219,3.145,6.755,6.755,0,0,0,2.323,2.276,7.042,7.042,0,0,0,3.662.868,5.908,5.908,0,0,0,3.45-.962,7.186,7.186,0,0,0,2.206-2.441,11.117,11.117,0,0,0,1.172-3.239,16.918,16.918,0,0,0,.353-3.309,15.959,15.959,0,0,0-.377-3.379,10.9,10.9,0,0,0-1.219-3.192,6.878,6.878,0,0,0-2.278-2.37,7.372,7.372,0,0,0-7.158.023Z" transform="translate(-104.482 -715.35)" fill="#90d1f4"/>
      </g>
    </g>
    <g id="Group_1629" data-name="Group 1629" transform="translate(350.074 -52.716)">
      <g id="Group_1624" data-name="Group 1624" transform="translate(375.961 553.564)">
        <path id="Path_1814" data-name="Path 1814" d="M471.682,655.634H382.309a6.349,6.349,0,0,1-6.348-6.349V559.912a6.348,6.348,0,0,1,6.348-6.348h89.373a6.348,6.348,0,0,1,6.349,6.348v89.373A6.349,6.349,0,0,1,471.682,655.634Zm-82.329-9.615h75.287a3.776,3.776,0,0,0,3.777-3.777V566.954a3.776,3.776,0,0,0-3.777-3.776H389.353a3.777,3.777,0,0,0-3.778,3.776v75.288A3.777,3.777,0,0,0,389.353,646.019Z" transform="translate(-375.961 -553.564)" fill="#0085c8"/>
      </g>
      <g id="Group_1626" data-name="Group 1626" transform="translate(420.428 624.558)">
        <g id="Group_1625" data-name="Group 1625">
          <path id="Path_1815" data-name="Path 1815" d="M423.813,625.069h-9.452a1.842,1.842,0,0,1-1.841-1.841v-9.452a1.842,1.842,0,0,1,1.841-1.843h9.452a1.842,1.842,0,0,1,1.843,1.843v9.452A1.842,1.842,0,0,1,423.813,625.069Zm-7.109-2.341h4.768a1.842,1.842,0,0,0,1.841-1.843v-4.767a1.842,1.842,0,0,0-1.841-1.843H416.7a1.843,1.843,0,0,0-1.843,1.843v4.767A1.843,1.843,0,0,0,416.7,622.728Z" transform="translate(-412.52 -611.933)" fill="#90d1f4"/>
        </g>
      </g>
      <g id="Group_1628" data-name="Group 1628" transform="translate(396.428 618.419)">
        <g id="Group_1627" data-name="Group 1627">
          <path id="Path_1816" data-name="Path 1816" d="M409.966,626.161h-15.08a2.1,2.1,0,0,1-2.1-2.1v-15.08a2.1,2.1,0,0,1,2.1-2.1h15.08a2.1,2.1,0,0,1,2.1,2.1v15.08A2.1,2.1,0,0,1,409.966,626.161Zm-11.642-3.437h8.205a2.1,2.1,0,0,0,2.1-2.1V612.42a2.1,2.1,0,0,0-2.1-2.1h-8.205a2.1,2.1,0,0,0-2.1,2.1v8.205A2.1,2.1,0,0,0,398.323,622.724Z" transform="translate(-392.788 -606.885)" fill="#90d1f4"/>
        </g>
      </g>
      <path id="Path_1817" data-name="Path 1817" d="M449.357,570.277h-52a4.567,4.567,0,0,0-4.567,4.566v31.269a4.567,4.567,0,0,0,4.567,4.567h3.678a11.636,11.636,0,0,1,1.52-2.591c3.367-4.279,8-5.264,13.08-4.578,3.237.438,6.428,1.209,9.642,1.817a8.012,8.012,0,0,0,3.105,0c1.653-.341,3.122-1.011,3.552-2.877.424-1.848-.469-3.223-1.767-4.439-.443-.415-1.513-.476-1.232-1.287.24-.693,1.192-.737,1.885-.848a7.948,7.948,0,0,1,8.45,3.963,9.537,9.537,0,0,1,.01,9.955,10.754,10.754,0,0,1-9.875,5.541c-3.536-.024-7.08-.172-10.607,0a11.3,11.3,0,0,0-3.015.577l-.011,3.389c.108-.054.208-.119.321-.168a15.484,15.484,0,0,1,7.952-.873,27.539,27.539,0,0,0,10.177-.595c5.808-1.552,9.62-7.252,9.4-13.934a11.665,11.665,0,0,0-9.536-10.922,9.818,9.818,0,0,0-8.676,2.049c-.369.321-.677.821-1.222.522-.5-.271-.439-.775-.462-1.237-.3-6.091,4.645-11.088,11.179-11.341,8.029-.31,14.841,4.654,17.588,13.006,3.158,9.6.963,18.251-5.166,25.988a31.509,31.509,0,0,1-12.4,9.616h14.438a4.567,4.567,0,0,0,4.566-4.567v-52A4.566,4.566,0,0,0,449.357,570.277Z" transform="translate(3.64 3.615)" fill="#90d1f4"/>
    </g>
  </g>
</svg>
